<?xml version="1.0" encoding="UTF-8"?>
<svg id="Capa_1" xmlns="http://www.w3.org/2000/svg" version="1.1" viewBox="0 0 326.4 59.46">
  <!-- Generator: Adobe Illustrator 30.5.1, SVG Export Plug-In . SVG Version: 2.1.4 Build 3)  -->
  <defs>
    <style>
      .st0 {
        fill: #fce200;
      }

      .st1 {
        fill: #fff;
      }
    </style>
  </defs>
  <path class="st1" d="M115.36,15.88v3.37c0,.55-.44.99-.99.99h-18.47c-.55,0-.99.44-.99.99v7.78c0,.55.44.99.99.99h15.75c.55,0,.99.44.99.99v3.37c0,.55-.44.99-.99.99h-15.75c-.55,0-.99.44-.99.99v8.2c0,.55.44.99.99.99h18.73c.55,0,.99.44.99.99v3.37c0,.55-.44.99-.99.99h-24.48c-.55,0-.99-.44-.99-.99V15.88c0-.55.44-.99.99-.99h24.22c.55,0,.99.44.99.99Z"/>
  <path class="st1" d="M119.64,24.13h3.37c.55,0,.99.44.99.99v1.76c0,.35.44.5.67.22,1.93-2.42,4.64-3.64,8.12-3.64,3.03,0,5.6.98,7.6,2.98,2,2,3.03,4.47,3.03,7.5v15.91c0,.55-.44.99-.99.99h-3.37c-.55,0-.99-.44-.99-.99v-13.95c0-4.61-4.26-8.21-8.75-7.15-1.23.29-2.34.89-3.28,1.79-1.39,1.34-2.06,2.98-2.06,4.98v14.32c0,.55-.44.99-.99.99h-3.37c-.55,0-.99-.44-.99-.99v-24.74c0-.55.44-.99.99-.99Z"/>
  <path class="st1" d="M145.73,24.13h3.35c.4,0,.76.24.91.61l7.1,17.07c.34.81,1.49.81,1.83,0l7.06-17.07c.15-.37.51-.61.91-.61h3.35c.71,0,1.19.72.91,1.37l-10.42,24.74c-.15.37-.51.6-.91.6h-3.67c-.4,0-.76-.24-.91-.6l-10.42-24.74c-.27-.65.2-1.37.91-1.37Z"/>
  <path class="st1" d="M181.82,11.69l1.5,2.94c.26.5.04,1.12-.48,1.35l-8.81,3.93c-.47.21-1.01.03-1.26-.42l-.95-1.68c-.26-.46-.11-1.04.34-1.32l8.25-5.19c.49-.31,1.14-.13,1.41.39ZM173.47,49.86v-24.74c0-.55.44-.99.99-.99h3.37c.55,0,.99.44.99.99v24.74c0,.55-.44.99-.99.99h-3.37c-.55,0-.99-.44-.99-.99Z"/>
  <path class="st1" d="M203.99,25.51v-1.13c0-.51.41-.92.92-.92h3.5c.51,0,.92.41.92.92v24.88c0,.51-.41.92-.92.92h-3.5c-.51,0-.92-.41-.92-.92v-1.13c0-.31-.37-.49-.6-.28-2.34,2-5.12,3-8.28,3-3.75,0-6.88-1.34-9.4-4.01-2.52-2.67-3.75-6.01-3.75-10.02s1.23-7.35,3.75-10.02c2.52-2.67,5.65-4.01,9.4-4.01,3.17,0,5.94,1,8.28,3,.24.2.6.03.6-.28ZM189.86,30.66c-1.59,1.64-2.36,3.7-2.36,6.16s.77,4.52,2.36,6.22c1.59,1.64,3.49,2.47,5.81,2.47s4.26-.82,5.86-2.47c1.59-1.7,2.36-3.75,2.36-6.22s-.77-4.52-2.36-6.16c-1.59-1.7-3.54-2.52-5.86-2.52s-4.21.82-5.81,2.52Z"/>
  <path class="st0" d="M242.25,15.88v7.78c0,.55-.44.99-.99.99h-14.93c-.55,0-.99.44-.99.99v1.57c0,.55.44.99.99.99h11.74c.55,0,.99.44.99.99v7.78c0,.55-.44.99-.99.99h-11.74c-.55,0-.99.44-.99.99v10.92c0,.55-.44.99-.99.99h-8.66c-.55,0-.99-.44-.99-.99V15.88c0-.55.44-.99.99-.99h25.56c.55,0,.99.44.99.99Z"/>
  <path class="st0" d="M245.38,46.89c-2.26-2.67-3.39-5.96-3.39-9.92s1.13-7.24,3.39-9.86c2.31-2.67,5.14-4.01,8.53-4.01,2.02,0,3.94.52,5.68,1.6.1.06.22,0,.22-.12v-.47c0-.27.22-.49.49-.49h8.79c.55,0,.99.44.99.99v24.74c0,.55-.44.99-.99.99h-8.79c-.27,0-.49-.22-.49-.49v-.47c0-.12-.13-.18-.22-.12-1.74,1.08-3.66,1.6-5.68,1.6-3.39,0-6.22-1.34-8.53-3.96ZM254.06,21.05l-2.98-4.73,11.56-7.45,4.11,6.78-12.69,5.39ZM256.22,40.83c1.9,0,3.49-1.7,3.49-3.96,0-2.05-1.59-3.75-3.49-3.75s-3.49,1.7-3.49,3.75c0,2.26,1.59,3.96,3.49,3.96Z"/>
  <path class="st0" d="M290.81,35.85c-.46.14-.96-.09-1.17-.52-.64-1.35-1.95-2.2-3.47-2.2-2.11,0-3.8,1.7-3.8,3.7,0,2.26,1.7,4.01,3.8,4.01,1.52,0,2.82-.85,3.47-2.2.21-.44.7-.66,1.17-.52l8.48,2.48c.56.16.86.78.64,1.32-1.02,2.52-2.65,4.59-4.92,6.22-2.52,1.8-5.5,2.72-8.84,2.72-4.16,0-7.6-1.34-10.38-3.96-2.77-2.67-4.16-5.96-4.16-9.92s1.39-7.24,4.16-9.86c2.77-2.67,6.22-4.01,10.38-4.01,3.34,0,6.32.92,8.84,2.77,2.27,1.59,3.9,3.66,4.92,6.17.22.54-.08,1.15-.64,1.32l-8.48,2.48Z"/>
  <path class="st0" d="M306.47,11.09c3.49,0,6.11,2.62,6.11,6.11s-2.62,6.06-6.11,6.06-6.11-2.62-6.11-6.06,2.67-6.11,6.11-6.11ZM301.33,49.86v-24.74c0-.55.44-.99.99-.99h8.3c.55,0,.99.44.99.99v24.74c0,.55-.44.99-.99.99h-8.3c-.55,0-.99-.44-.99-.99Z"/>
  <path class="st0" d="M316.13,49.86V13.31c0-.55.44-.99.99-.99h8.3c.55,0,.99.44.99.99v36.55c0,.55-.44.99-.99.99h-8.3c-.55,0-.99-.44-.99-.99Z"/>
  <g>
    <path class="st0" d="M73.1,1.19v48.47c0,.66-.53,1.19-1.18,1.19h-9.77V10.9c0-.66-.53-1.19-1.19-1.19h-18.93v6.75l-.02-.02-.78.55-.78-.55-.78.55-.78-.55-.78.55-.78-.55-.78.55-.78-.55-.78.55-.78-.55-.78.55-.78-.55-.78.55-.78-.55-.02.02v-6.75H11.84c-.48,0-.89.4-.89.9v29.33c0,.66.53,1.19,1.19,1.19h37.93c.27,0,.54.11.76.28l11.32,9.44H1.18C.53,50.85,0,50.32,0,49.66V1.19C0,.53.53,0,1.18,0h70.74c.65,0,1.18.53,1.18,1.19Z"/>
    <path class="st1" d="M53.18,59.46h-15.86c-.53,0-.79-.64-.41-1.01l7.68-7.6h17.55l-8.55,8.45c-.11.11-.26.17-.41.17Z"/>
    <g>
      <circle class="st1" cx="27.73" cy="27.19" r="3.13"/>
      <circle class="st1" cx="36.55" cy="27.19" r="3.13"/>
      <circle class="st1" cx="45.36" cy="27.19" r="3.13"/>
    </g>
  </g>
</svg>